<svg xmlns="http://www.w3.org/2000/svg" viewBox="0 0 64 64" width="512" height="512" aria-label="Favicon">
  <path d="M32 10&#xA;           c-9 0-15 6.8-15 15&#xA;           c0 5.2 2.4 8.6 4.8 11&#xA;           c1.7 1.7 2.6 3.1 2.6 4.9&#xA;           v2.2&#xA;           h15.2&#xA;           v-2.2&#xA;           c0-1.8 0.9-3.2 2.6-4.9&#xA;           c2.4-2.4 4.8-5.8 4.8-11&#xA;           c0-8.2-6-15-15-15&#xA;           z" fill="none" stroke="#121212" stroke-width="2.6" stroke-linejoin="round"></path>
  <rect x="24.8" y="45.8" width="14.4" height="2.4" rx="1" fill="#121212"></rect>
  <rect x="26.2" y="49.2" width="11.6" height="2.2" rx="1" fill="#121212"></rect>
  <rect x="29" y="52.4" width="6" height="2.6" rx="1" fill="#121212"></rect>
  <path d="M27.5 24&#xA;           c0-3.2 2.2-5.2 4.8-5.2&#xA;           c2.5 0 4.5 1.7 4.5 4.2&#xA;           c0 2.1-1.1 3.1-2.5 4.2&#xA;           c-1.5 1.2-2.3 2.2-2.3 4.1&#xA;           v3.6" fill="none" stroke="#B87A63" stroke-width="2.8" stroke-linecap="round" stroke-linejoin="round"></path>
</svg>